<svg xmlns="http://www.w3.org/2000/svg" version="1.1" xmlns:xlink="http://www.w3.org/1999/xlink"
    xmlns:svgjs="http://svgjs.com/svgjs" width="512" height="512" x="0" y="0" viewBox="0 0 511.81 511.81"
    style="enable-background:new 0 0 512 512" xml:space="preserve" class="">
    <g>
        <path
            d="M40.072 95.238c.738 19.881 29.269 19.866 30 0V70.072h25.166c19.881-.738 19.866-29.269 0-30H70.072V14.905c-.738-19.881-29.269-19.866-30 0v25.167H14.905c-19.881.738-19.866 29.269 0 30h25.167zM472.805 441.738h-25.167v-25.166c-.738-19.881-29.269-19.866-30 0v25.166h-25.167c-19.881.738-19.866 29.269 0 30h25.167v25.167c.738 19.881 29.269 19.866 30 0v-25.167h25.167c19.881-.738 19.866-29.269 0-30zM496.905 40.072h-9.1v-9.101c-.738-19.881-29.269-19.866-30 0v9.101h-9.101c-19.881.738-19.866 29.269 0 30h9.101v9.1c.738 19.881 29.269 19.866 30 0v-9.1h9.1c19.881-.738 19.866-29.269 0-30zM103.271 417.638h-9.1v-9.1c-.738-19.881-29.269-19.866-30 0v9.1h-9.1c-19.881.738-19.866 29.269 0 30h9.1v9.1c.738 19.881 29.269 19.866 30 0v-9.1h9.1c19.881-.738 19.866-29.269 0-30zM467.22 353.492a14.999 14.999 0 0 0-1.23-15.627l-74.113-102.001 38.961-119.924a14.996 14.996 0 0 0-3.659-15.241 14.996 14.996 0 0 0-15.241-3.659l-119.924 38.961-102.002-74.114a14.999 14.999 0 0 0-23.817 12.135v126.089L64.192 274.224a14.998 14.998 0 0 0 4.183 26.4l119.916 38.962 38.962 119.916a15 15 0 0 0 26.4 4.183l74.113-102.003h126.089a14.998 14.998 0 0 0 13.365-8.19z"
            fill="#000000" data-original="#000000" class=""></path>
    </g>
</svg>